%TF.GenerationSoftware,KiCad,Pcbnew,(7.0.0)*%
%TF.CreationDate,2023-06-26T15:27:35+02:00*%
%TF.ProjectId,Prj_3_Piano,50726a5f-335f-4506-9961-6e6f2e6b6963,v1.0*%
%TF.SameCoordinates,Original*%
%TF.FileFunction,Plated,1,2,PTH,Drill*%
%TF.FilePolarity,Positive*%
%FSLAX46Y46*%
G04 Gerber Fmt 4.6, Leading zero omitted, Abs format (unit mm)*
G04 Created by KiCad (PCBNEW (7.0.0)) date 2023-06-26 15:27:35*
%MOMM*%
%LPD*%
G01*
G04 APERTURE LIST*
%TA.AperFunction,ComponentDrill*%
%ADD10C,0.730000*%
%TD*%
%TA.AperFunction,ComponentDrill*%
%ADD11C,0.750000*%
%TD*%
%TA.AperFunction,ComponentDrill*%
%ADD12C,0.800000*%
%TD*%
%TA.AperFunction,ComponentDrill*%
%ADD13C,0.900000*%
%TD*%
%TA.AperFunction,ComponentDrill*%
%ADD14C,1.000000*%
%TD*%
%TA.AperFunction,ComponentDrill*%
%ADD15C,1.100000*%
%TD*%
%TA.AperFunction,ComponentDrill*%
%ADD16C,2.057400*%
%TD*%
%TA.AperFunction,ComponentDrill*%
%ADD17C,3.200000*%
%TD*%
%TA.AperFunction,ComponentDrill*%
%ADD18C,3.302000*%
%TD*%
G04 APERTURE END LIST*
D10*
%TO.C,IC1*%
X300569200Y-203544100D03*
X300569200Y-211164100D03*
X303109200Y-203544100D03*
X303109200Y-211164100D03*
X305649200Y-203544100D03*
X305649200Y-211164100D03*
X308189200Y-203544100D03*
X308189200Y-211164100D03*
D11*
%TO.C,Q1*%
X278379200Y-208084100D03*
X278379200Y-209354100D03*
X278379200Y-210624100D03*
%TO.C,U1*%
X315109200Y-196354100D03*
X316379200Y-196354100D03*
X317649200Y-196354100D03*
D12*
%TO.C,R4*%
X240000000Y-298920000D03*
X240000000Y-309080000D03*
%TO.C,R5*%
X252000000Y-257420000D03*
X252000000Y-267580000D03*
%TO.C,R6*%
X264000000Y-299000000D03*
X264000000Y-309160000D03*
%TO.C,R7*%
X276000000Y-257420000D03*
X276000000Y-267580000D03*
%TO.C,C2*%
X278379200Y-195354100D03*
%TO.C,C1*%
X279379200Y-220354100D03*
X279379200Y-222354100D03*
%TO.C,C2*%
X280379200Y-195354100D03*
%TO.C,R9*%
X288000000Y-299000000D03*
X288000000Y-309160000D03*
%TO.C,R1*%
X288379200Y-203274100D03*
X288379200Y-213434100D03*
%TO.C,R2*%
X288379200Y-219274100D03*
X288379200Y-229434100D03*
%TO.C,C5*%
X297379200Y-192354100D03*
X297379200Y-197354100D03*
%TO.C,C4*%
X297379200Y-216951449D03*
X297379200Y-221951449D03*
%TO.C,C7*%
X297379200Y-229354100D03*
X297379200Y-234354100D03*
%TO.C,R3*%
X307379200Y-187274100D03*
X307379200Y-197434100D03*
%TO.C,R8*%
X307379200Y-220274100D03*
X307379200Y-230434100D03*
%TO.C,R10*%
X311000000Y-299000000D03*
X311000000Y-309160000D03*
%TO.C,C8*%
X313976549Y-219354100D03*
%TO.C,C3*%
X315379200Y-186354100D03*
%TO.C,C6*%
X315379200Y-207354100D03*
%TO.C,C3*%
X317379200Y-186354100D03*
%TO.C,C6*%
X317379200Y-207354100D03*
%TO.C,C8*%
X318976549Y-219354100D03*
%TO.C,R11*%
X324000000Y-257420000D03*
X324000000Y-267580000D03*
%TO.C,R12*%
X336000000Y-299000000D03*
X336000000Y-309160000D03*
%TO.C,R13*%
X348000000Y-257420000D03*
X348000000Y-267580000D03*
%TO.C,R14*%
X359000000Y-299000000D03*
X359000000Y-309160000D03*
%TO.C,R15*%
X372000000Y-257420000D03*
X372000000Y-267580000D03*
%TO.C,R16*%
X384000000Y-299000000D03*
X384000000Y-309160000D03*
D13*
%TO.C,D2*%
X314839200Y-231354100D03*
X317379200Y-231354100D03*
D14*
%TO.C,J1*%
X268000000Y-212000000D03*
X268000000Y-214540000D03*
%TO.C,SW1*%
X376379200Y-169579100D03*
X378879200Y-169579100D03*
X381379200Y-169579100D03*
D15*
%TO.C,SW2*%
X237500000Y-319000000D03*
X237500000Y-325500000D03*
X242000000Y-319000000D03*
X242000000Y-325500000D03*
%TO.C,SW3*%
X249750000Y-280250000D03*
X249750000Y-286750000D03*
X254250000Y-280250000D03*
X254250000Y-286750000D03*
%TO.C,SW4*%
X262000000Y-319000000D03*
X262000000Y-325500000D03*
X266500000Y-319000000D03*
X266500000Y-325500000D03*
%TO.C,D1*%
X269299200Y-229354100D03*
%TO.C,SW5*%
X273750000Y-280250000D03*
X273750000Y-286750000D03*
X278250000Y-280250000D03*
X278250000Y-286750000D03*
%TO.C,D1*%
X279459200Y-229354100D03*
%TO.C,SW6*%
X286000000Y-319000000D03*
X286000000Y-325500000D03*
X290500000Y-319000000D03*
X290500000Y-325500000D03*
%TO.C,SW7*%
X309000000Y-319000000D03*
X309000000Y-325500000D03*
X313500000Y-319000000D03*
X313500000Y-325500000D03*
%TO.C,SW8*%
X321750000Y-280250000D03*
X321750000Y-286750000D03*
X326250000Y-280250000D03*
X326250000Y-286750000D03*
%TO.C,SW9*%
X334000000Y-319000000D03*
X334000000Y-325500000D03*
X338500000Y-319000000D03*
X338500000Y-325500000D03*
%TO.C,SW10*%
X345750000Y-280250000D03*
X345750000Y-286750000D03*
X350250000Y-280250000D03*
X350250000Y-286750000D03*
%TO.C,SW11*%
X358000000Y-319000000D03*
X358000000Y-325500000D03*
X362500000Y-319000000D03*
X362500000Y-325500000D03*
%TO.C,SW12*%
X369750000Y-280250000D03*
X369750000Y-286750000D03*
X374250000Y-280250000D03*
X374250000Y-286750000D03*
%TO.C,SW13*%
X382000000Y-319000000D03*
X382000000Y-325500000D03*
X386500000Y-319000000D03*
X386500000Y-325500000D03*
D16*
%TO.C,BT1*%
X372562600Y-177760000D03*
X385262600Y-177760000D03*
D17*
%TO.C,REF\u002A\u002A*%
X140000000Y-172000000D03*
X140000000Y-249000000D03*
X140000000Y-332000000D03*
X237000000Y-231000000D03*
X336000000Y-231000000D03*
X412000000Y-172000000D03*
X412000000Y-249000000D03*
X412000000Y-332000000D03*
D18*
%TO.C,BT1*%
X367000000Y-193000000D03*
X367000000Y-215225000D03*
X390825200Y-193000000D03*
X390825200Y-215225000D03*
M02*
