%TF.GenerationSoftware,KiCad,Pcbnew,(7.0.0)*%
%TF.CreationDate,2023-06-26T15:27:43+02:00*%
%TF.ProjectId,Prj_3_Piano,50726a5f-335f-4506-9961-6e6f2e6b6963,v1.0*%
%TF.SameCoordinates,Original*%
%TF.FileFunction,Soldermask,Top*%
%TF.FilePolarity,Negative*%
%FSLAX46Y46*%
G04 Gerber Fmt 4.6, Leading zero omitted, Abs format (unit mm)*
G04 Created by KiCad (PCBNEW (7.0.0)) date 2023-06-26 15:27:43*
%MOMM*%
%LPD*%
G01*
G04 APERTURE LIST*
%ADD10C,6.400000*%
%ADD11C,1.600000*%
%ADD12O,1.600000X1.600000*%
%ADD13C,2.000000*%
%ADD14R,1.600000X1.600000*%
%ADD15R,1.500000X1.050000*%
%ADD16O,1.500000X1.050000*%
%ADD17R,2.200000X2.200000*%
%ADD18O,2.200000X2.200000*%
%ADD19R,2.000000X2.000000*%
%ADD20R,1.130000X1.130000*%
%ADD21C,1.130000*%
%ADD22R,1.050000X1.500000*%
%ADD23O,1.050000X1.500000*%
%ADD24R,1.800000X1.800000*%
%ADD25C,1.800000*%
%ADD26C,2.565400*%
%ADD27C,3.302000*%
%ADD28C,1.500000*%
%ADD29R,1.700000X1.700000*%
%ADD30O,1.700000X1.700000*%
G04 APERTURE END LIST*
D10*
%TO.C,REF\u002A\u002A*%
X412000000Y-249000000D03*
%TD*%
%TO.C,REF\u002A\u002A*%
X336000000Y-231000000D03*
%TD*%
%TO.C,REF\u002A\u002A*%
X237000000Y-231000000D03*
%TD*%
%TO.C,REF\u002A\u002A*%
X140000000Y-249000000D03*
%TD*%
D11*
%TO.C,R13*%
X348000000Y-257420000D03*
D12*
X347999999Y-267579999D03*
%TD*%
D11*
%TO.C,R1*%
X288379200Y-203274100D03*
D12*
X288379199Y-213434099D03*
%TD*%
D10*
%TO.C,REF\u002A\u002A*%
X412000000Y-332000000D03*
%TD*%
D11*
%TO.C,R8*%
X307379200Y-220274100D03*
D12*
X307379199Y-230434099D03*
%TD*%
D13*
%TO.C,SW5*%
X273750000Y-286750000D03*
X273750000Y-280250000D03*
X278250000Y-286750000D03*
X278250000Y-280250000D03*
%TD*%
D11*
%TO.C,R10*%
X311000000Y-299000000D03*
D12*
X310999999Y-309159999D03*
%TD*%
D14*
%TO.C,C7*%
X297379199Y-234354099D03*
D11*
X297379200Y-229354100D03*
%TD*%
D15*
%TO.C,Q1*%
X278379199Y-208084099D03*
D16*
X278379199Y-209354099D03*
X278379199Y-210624099D03*
%TD*%
D13*
%TO.C,SW2*%
X237500000Y-325500000D03*
X237500000Y-319000000D03*
X242000000Y-325500000D03*
X242000000Y-319000000D03*
%TD*%
D14*
%TO.C,C5*%
X297379199Y-192354099D03*
D11*
X297379200Y-197354100D03*
%TD*%
D14*
%TO.C,C8*%
X313976548Y-219354099D03*
D11*
X318976549Y-219354100D03*
%TD*%
%TO.C,R2*%
X288379200Y-219274100D03*
D12*
X288379199Y-229434099D03*
%TD*%
D13*
%TO.C,SW6*%
X286000000Y-325500000D03*
X286000000Y-319000000D03*
X290500000Y-325500000D03*
X290500000Y-319000000D03*
%TD*%
D17*
%TO.C,D1*%
X279459199Y-229354099D03*
D18*
X269299199Y-229354099D03*
%TD*%
D14*
%TO.C,C4*%
X297379199Y-216951448D03*
D11*
X297379200Y-221951449D03*
%TD*%
D10*
%TO.C,REF\u002A\u002A*%
X140000000Y-332000000D03*
%TD*%
D19*
%TO.C,TP2*%
X316379199Y-176354099D03*
%TD*%
D20*
%TO.C,IC1*%
X308189199Y-203544099D03*
D21*
X305649200Y-203544100D03*
X303109200Y-203544100D03*
X300569200Y-203544100D03*
X300569200Y-211164100D03*
X303109200Y-211164100D03*
X305649200Y-211164100D03*
X308189200Y-211164100D03*
%TD*%
D11*
%TO.C,R9*%
X288000000Y-299000000D03*
D12*
X287999999Y-309159999D03*
%TD*%
D14*
%TO.C,C6*%
X315379199Y-207354099D03*
D11*
X317379200Y-207354100D03*
%TD*%
D19*
%TO.C,TP3*%
X307379199Y-176354099D03*
%TD*%
D22*
%TO.C,U1*%
X317649199Y-196354099D03*
D23*
X316379199Y-196354099D03*
X315109199Y-196354099D03*
%TD*%
D13*
%TO.C,SW8*%
X321750000Y-286750000D03*
X321750000Y-280250000D03*
X326250000Y-286750000D03*
X326250000Y-280250000D03*
%TD*%
%TO.C,SW3*%
X249750000Y-286750000D03*
X249750000Y-280250000D03*
X254250000Y-286750000D03*
X254250000Y-280250000D03*
%TD*%
D11*
%TO.C,R5*%
X252000000Y-257420000D03*
D12*
X251999999Y-267579999D03*
%TD*%
D10*
%TO.C,REF\u002A\u002A*%
X140000000Y-172000000D03*
%TD*%
D11*
%TO.C,R6*%
X264000000Y-299000000D03*
D12*
X263999999Y-309159999D03*
%TD*%
D11*
%TO.C,R12*%
X336000000Y-299000000D03*
D12*
X335999999Y-309159999D03*
%TD*%
D24*
%TO.C,D2*%
X317379199Y-231354099D03*
D25*
X314839200Y-231354100D03*
%TD*%
D11*
%TO.C,R15*%
X372000000Y-257420000D03*
D12*
X371999999Y-267579999D03*
%TD*%
D10*
%TO.C,REF\u002A\u002A*%
X412000000Y-172000000D03*
%TD*%
D26*
%TO.C,BT1*%
X372562600Y-177760000D03*
X385262600Y-177760000D03*
D27*
X367000000Y-193000000D03*
X390825200Y-193000000D03*
X367000000Y-215225000D03*
X390825200Y-215225000D03*
%TD*%
D13*
%TO.C,SW4*%
X262000000Y-325500000D03*
X262000000Y-319000000D03*
X266500000Y-325500000D03*
X266500000Y-319000000D03*
%TD*%
%TO.C,SW10*%
X345750000Y-286750000D03*
X345750000Y-280250000D03*
X350250000Y-286750000D03*
X350250000Y-280250000D03*
%TD*%
%TO.C,SW11*%
X358000000Y-325500000D03*
X358000000Y-319000000D03*
X362500000Y-325500000D03*
X362500000Y-319000000D03*
%TD*%
%TO.C,SW7*%
X309000000Y-325500000D03*
X309000000Y-319000000D03*
X313500000Y-325500000D03*
X313500000Y-319000000D03*
%TD*%
%TO.C,SW13*%
X382000000Y-325500000D03*
X382000000Y-319000000D03*
X386500000Y-325500000D03*
X386500000Y-319000000D03*
%TD*%
D14*
%TO.C,C1*%
X279379199Y-222354099D03*
D11*
X279379200Y-220354100D03*
%TD*%
%TO.C,R7*%
X276000000Y-257420000D03*
D12*
X275999999Y-267579999D03*
%TD*%
D14*
%TO.C,C3*%
X315379199Y-186354099D03*
D11*
X317379200Y-186354100D03*
%TD*%
%TO.C,R16*%
X384000000Y-299000000D03*
D12*
X383999999Y-309159999D03*
%TD*%
D14*
%TO.C,C2*%
X278379199Y-195354099D03*
D11*
X280379200Y-195354100D03*
%TD*%
%TO.C,R14*%
X359000000Y-299000000D03*
D12*
X358999999Y-309159999D03*
%TD*%
D19*
%TO.C,TP1*%
X282379199Y-176354099D03*
%TD*%
D13*
%TO.C,SW12*%
X369750000Y-286750000D03*
X369750000Y-280250000D03*
X374250000Y-286750000D03*
X374250000Y-280250000D03*
%TD*%
D11*
%TO.C,R11*%
X324000000Y-257420000D03*
D12*
X323999999Y-267579999D03*
%TD*%
D28*
%TO.C,SW1*%
X381379200Y-169579100D03*
X378879200Y-169579100D03*
X376379200Y-169579100D03*
%TD*%
D11*
%TO.C,R3*%
X307379200Y-187274100D03*
D12*
X307379199Y-197434099D03*
%TD*%
D13*
%TO.C,SW9*%
X334000000Y-325500000D03*
X334000000Y-319000000D03*
X338500000Y-325500000D03*
X338500000Y-319000000D03*
%TD*%
D11*
%TO.C,R4*%
X240000000Y-298920000D03*
D12*
X239999999Y-309079999D03*
%TD*%
D29*
%TO.C,J1*%
X267999999Y-211999999D03*
D30*
X267999999Y-214539999D03*
%TD*%
M02*
